HIERARCHY
ROOT mixamorig:Hips
{
	OFFSET 0.000000 103.991501 0.000000
	CHANNELS 6 Xposition Yposition Zposition Xrotation Yrotation Zrotation
	JOINT mixamorig:Spine
	{
		OFFSET 0.000000 10.181602 0.131500
		CHANNELS 3 Xrotation Yrotation Zrotation
		JOINT mixamorig:Spine1
		{
			OFFSET 0.000000 10.083504 -1.000800
			CHANNELS 3 Xrotation Yrotation Zrotation
			JOINT mixamorig:Spine2
			{
				OFFSET 0.000000 9.100006 -1.373400
				CHANNELS 3 Xrotation Yrotation Zrotation
				JOINT mixamorig:Neck
				{
					OFFSET 0.000000 16.671707 -2.516200
					CHANNELS 3 Xrotation Yrotation Zrotation
					JOINT mixamorig:Head
					{
						OFFSET 0.000000 9.617905 1.685000
						CHANNELS 3 Xrotation Yrotation Zrotation
						JOINT mixamorig:HeadTop_End
						{
							OFFSET 0.000000 17.815201 2.585000
							CHANNELS 3 Xrotation Yrotation Zrotation
							End Site
							{
								OFFSET 0.000000 13.794495 0.000000
							}
						}
						JOINT mixamorig:LeftEye
						{
							OFFSET 3.067600 6.409500 9.283600
							CHANNELS 3 Xrotation Yrotation Zrotation
							End Site
							{
								OFFSET 0.000000 13.794495 0.000000
							}
						}
						JOINT mixamorig:RightEye
						{
							OFFSET -3.067600 6.409500 9.283500
							CHANNELS 3 Xrotation Yrotation Zrotation
							End Site
							{
								OFFSET 0.000000 13.794495 0.000000
							}
						}
					}
				}
				JOINT mixamorig:LeftShoulder
				{
					OFFSET 4.570400 10.945999 -2.628000
					CHANNELS 3 Xrotation Yrotation Zrotation
					JOINT mixamorig:LeftArm
					{
						OFFSET 10.592400 -0.524597 -2.232100
						CHANNELS 3 Xrotation Yrotation Zrotation
						JOINT mixamorig:LeftForeArm
						{
							OFFSET 27.841499 0.000000 0.000000
							CHANNELS 3 Xrotation Yrotation Zrotation
							JOINT mixamorig:LeftHand
							{
								OFFSET 28.328800 0.000000 0.000000
								CHANNELS 3 Xrotation Yrotation Zrotation
								JOINT mixamorig:LeftHandThumb1
								{
									OFFSET 2.466103 -1.576218 2.681689
									CHANNELS 3 Xrotation Yrotation Zrotation
									JOINT mixamorig:LeftHandThumb2
									{
										OFFSET 3.229782 -1.864716 1.864716
										CHANNELS 3 Xrotation Yrotation Zrotation
										JOINT mixamorig:LeftHandThumb3
										{
											OFFSET 2.652611 -1.531494 1.531488
											CHANNELS 3 Xrotation Yrotation Zrotation
											JOINT mixamorig:LeftHandThumb4
											{
												OFFSET 1.954605 -1.128494 1.128493
												CHANNELS 3 Xrotation Yrotation Zrotation
												End Site
												{
													OFFSET -0.000404 2.523392 0.000683
												}
											}
										}
									}
								}
								JOINT mixamorig:LeftHandIndex1
								{
									OFFSET 9.109299 -0.518112 2.259867
									CHANNELS 3 Xrotation Yrotation Zrotation
									JOINT mixamorig:LeftHandIndex2
									{
										OFFSET 3.676399 0.000000 0.000000
										CHANNELS 3 Xrotation Yrotation Zrotation
										JOINT mixamorig:LeftHandIndex3
										{
											OFFSET 2.883102 0.000000 0.000000
											CHANNELS 3 Xrotation Yrotation Zrotation
											JOINT mixamorig:LeftHandIndex4
											{
												OFFSET 2.392700 0.000000 0.000000
												CHANNELS 3 Xrotation Yrotation Zrotation
												End Site
												{
													OFFSET 0.000000 2.392700 0.001080
												}
											}
										}
									}
								}
								JOINT mixamorig:LeftHandMiddle1
								{
									OFFSET 9.533401 0.000000 0.000000
									CHANNELS 3 Xrotation Yrotation Zrotation
									JOINT mixamorig:LeftHandMiddle2
									{
										OFFSET 3.698196 0.000000 0.000000
										CHANNELS 3 Xrotation Yrotation Zrotation
										JOINT mixamorig:LeftHandMiddle3
										{
											OFFSET 2.950897 0.000000 0.000000
											CHANNELS 3 Xrotation Yrotation Zrotation
											JOINT mixamorig:LeftHandMiddle4
											{
												OFFSET 2.833900 0.000000 0.000000
												CHANNELS 3 Xrotation Yrotation Zrotation
												End Site
												{
													OFFSET 0.000000 2.833893 0.001278
												}
											}
										}
									}
								}
								JOINT mixamorig:LeftHandRing1
								{
									OFFSET 9.104500 -0.043060 -1.865119
									CHANNELS 3 Xrotation Yrotation Zrotation
									JOINT mixamorig:LeftHandRing2
									{
										OFFSET 3.153999 0.000000 0.000000
										CHANNELS 3 Xrotation Yrotation Zrotation
										JOINT mixamorig:LeftHandRing3
										{
											OFFSET 2.937698 0.000000 0.000000
											CHANNELS 3 Xrotation Yrotation Zrotation
											JOINT mixamorig:LeftHandRing4
											{
												OFFSET 2.647499 0.000000 0.000000
												CHANNELS 3 Xrotation Yrotation Zrotation
												End Site
												{
													OFFSET 0.000000 2.647507 0.001195
												}
											}
										}
									}
								}
								JOINT mixamorig:LeftHandPinky1
								{
									OFFSET 8.077797 -0.486984 -3.806321
									CHANNELS 3 Xrotation Yrotation Zrotation
									JOINT mixamorig:LeftHandPinky2
									{
										OFFSET 3.599998 0.000000 0.000000
										CHANNELS 3 Xrotation Yrotation Zrotation
										JOINT mixamorig:LeftHandPinky3
										{
											OFFSET 2.114197 0.000000 0.000000
											CHANNELS 3 Xrotation Yrotation Zrotation
											JOINT mixamorig:LeftHandPinky4
											{
												OFFSET 1.975700 0.000000 0.000000
												CHANNELS 3 Xrotation Yrotation Zrotation
												End Site
												{
													OFFSET 0.000000 1.975693 0.000892
												}
											}
										}
									}
								}
							}
						}
					}
				}
				JOINT mixamorig:RightShoulder
				{
					OFFSET -4.570000 10.946198 -2.628000
					CHANNELS 3 Xrotation Yrotation Zrotation
					JOINT mixamorig:RightArm
					{
						OFFSET -10.592800 -0.524796 -2.232100
						CHANNELS 3 Xrotation Yrotation Zrotation
						JOINT mixamorig:RightForeArm
						{
							OFFSET -27.841499 0.000000 0.000000
							CHANNELS 3 Xrotation Yrotation Zrotation
							JOINT mixamorig:RightHand
							{
								OFFSET -28.328800 0.000000 0.000000
								CHANNELS 3 Xrotation Yrotation Zrotation
								JOINT mixamorig:RightHandPinky1
								{
									OFFSET -8.076698 -0.486725 -3.806227
									CHANNELS 3 Xrotation Yrotation Zrotation
									JOINT mixamorig:RightHandPinky2
									{
										OFFSET -3.599998 0.000000 0.000000
										CHANNELS 3 Xrotation Yrotation Zrotation
										JOINT mixamorig:RightHandPinky3
										{
											OFFSET -2.114197 0.000000 0.000000
											CHANNELS 3 Xrotation Yrotation Zrotation
											JOINT mixamorig:RightHandPinky4
											{
												OFFSET -1.975700 0.000000 0.000000
												CHANNELS 3 Xrotation Yrotation Zrotation
												End Site
												{
													OFFSET 0.000000 1.975693 0.000919
												}
											}
										}
									}
								}
								JOINT mixamorig:RightHandRing1
								{
									OFFSET -9.103600 -0.043030 -1.865120
									CHANNELS 3 Xrotation Yrotation Zrotation
									JOINT mixamorig:RightHandRing2
									{
										OFFSET -3.153999 0.000000 0.000000
										CHANNELS 3 Xrotation Yrotation Zrotation
										JOINT mixamorig:RightHandRing3
										{
											OFFSET -2.937698 0.000000 0.000000
											CHANNELS 3 Xrotation Yrotation Zrotation
											JOINT mixamorig:RightHandRing4
											{
												OFFSET -2.647499 0.000000 0.000000
												CHANNELS 3 Xrotation Yrotation Zrotation
												End Site
												{
													OFFSET 0.000000 2.647507 0.001231
												}
											}
										}
									}
								}
								JOINT mixamorig:RightHandMiddle1
								{
									OFFSET -9.532501 0.000000 0.000000
									CHANNELS 3 Xrotation Yrotation Zrotation
									JOINT mixamorig:RightHandMiddle2
									{
										OFFSET -3.698196 0.000000 0.000000
										CHANNELS 3 Xrotation Yrotation Zrotation
										JOINT mixamorig:RightHandMiddle3
										{
											OFFSET -2.950897 0.000000 0.000000
											CHANNELS 3 Xrotation Yrotation Zrotation
											JOINT mixamorig:RightHandMiddle4
											{
												OFFSET -2.833900 0.000000 0.000000
												CHANNELS 3 Xrotation Yrotation Zrotation
												End Site
												{
													OFFSET 0.000000 2.833893 0.001318
												}
											}
										}
									}
								}
								JOINT mixamorig:RightHandIndex1
								{
									OFFSET -9.108299 -0.517853 2.259859
									CHANNELS 3 Xrotation Yrotation Zrotation
									JOINT mixamorig:RightHandIndex2
									{
										OFFSET -3.676399 0.000000 0.000000
										CHANNELS 3 Xrotation Yrotation Zrotation
										JOINT mixamorig:RightHandIndex3
										{
											OFFSET -2.883102 0.000000 0.000000
											CHANNELS 3 Xrotation Yrotation Zrotation
											JOINT mixamorig:RightHandIndex4
											{
												OFFSET -2.392700 0.000000 0.000000
												CHANNELS 3 Xrotation Yrotation Zrotation
												End Site
												{
													OFFSET 0.000000 2.392700 0.001113
												}
											}
										}
									}
								}
								JOINT mixamorig:RightHandThumb1
								{
									OFFSET -2.464798 -1.573944 2.681868
									CHANNELS 3 Xrotation Yrotation Zrotation
									JOINT mixamorig:RightHandThumb2
									{
										OFFSET -3.229782 -1.864716 1.864716
										CHANNELS 3 Xrotation Yrotation Zrotation
										JOINT mixamorig:RightHandThumb3
										{
											OFFSET -2.652542 -1.531448 1.531448
											CHANNELS 3 Xrotation Yrotation Zrotation
											JOINT mixamorig:RightHandThumb4
											{
												OFFSET -1.954605 -1.128494 1.128493
												CHANNELS 3 Xrotation Yrotation Zrotation
												End Site
												{
													OFFSET 0.000412 2.523392 0.000704
												}
											}
										}
									}
								}
							}
						}
					}
				}
			}
		}
	}
	JOINT mixamorig:LeftUpLeg
	{
		OFFSET 8.207800 -6.751701 -1.599600
		CHANNELS 3 Xrotation Yrotation Zrotation
		JOINT mixamorig:LeftLeg
		{
			OFFSET 0.000000 -44.370499 0.284600
			CHANNELS 3 Xrotation Yrotation Zrotation
			JOINT mixamorig:LeftFoot
			{
				OFFSET 0.000000 -44.427898 -2.982200
				CHANNELS 3 Xrotation Yrotation Zrotation
				JOINT mixamorig:LeftToeBase
				{
					OFFSET 0.000000 -8.728700 10.710600
					CHANNELS 3 Xrotation Yrotation Zrotation
					JOINT mixamorig:LeftToe_End
					{
						OFFSET 0.000000 -0.000700 9.278099
						CHANNELS 3 Xrotation Yrotation Zrotation
						End Site
						{
							OFFSET 0.000000 9.278100 0.000000
						}
					}
				}
			}
		}
	}
	JOINT mixamorig:RightUpLeg
	{
		OFFSET -8.207800 -6.751701 -1.599600
		CHANNELS 3 Xrotation Yrotation Zrotation
		JOINT mixamorig:RightLeg
		{
			OFFSET 0.000000 -44.370499 0.286200
			CHANNELS 3 Xrotation Yrotation Zrotation
			JOINT mixamorig:RightFoot
			{
				OFFSET 0.000000 -44.427700 -2.983800
				CHANNELS 3 Xrotation Yrotation Zrotation
				JOINT mixamorig:RightToeBase
				{
					OFFSET 0.000000 -8.728700 10.710600
					CHANNELS 3 Xrotation Yrotation Zrotation
					JOINT mixamorig:RightToe_End
					{
						OFFSET 0.000000 -0.000700 9.278100
						CHANNELS 3 Xrotation Yrotation Zrotation
						End Site
						{
							OFFSET 0.000000 9.278100 0.000000
						}
					}
				}
			}
		}
	}
}
MOTION
Frames: 5
Frame Time: 0.033333
-1.792929 90.238792 162.175430 10.512465 4.144283 -0.785877 9.349592 -7.753490 0.004758 0.790293 -3.151624 -0.883959 3.726871 -3.188865 -1.068165 -2.881549 1.175675 0.415128 -12.624329 6.346301 2.388356 0.000001 0.000000 -0.000000 0.000001 0.000000 -0.000000 0.000001 0.000000 -0.000000 0.353456 -9.773642 -13.909552 -21.305915 -2.624382 -60.492732 -0.000065 -84.596442 -0.000067 0.961881 0.794658 6.799742 -0.820503 6.623770 -5.864586 11.879384 33.122483 15.623918 1.925725 -34.005087 18.593824 -0.000000 -0.000001 -0.000001 6.301281 3.686938 -82.716528 4.108225 5.586327 -72.642142 5.519014 5.841671 -86.741067 -0.000000 -0.000000 0.000001 3.821612 7.858233 -75.985936 4.711840 5.739449 -78.753379 3.124497 5.178891 -62.184371 0.000001 -0.000000 -0.000001 2.349222 7.495011 -75.983642 6.006998 5.848994 -91.529808 3.934223 5.529207 -70.845557 -0.000001 0.000000 -0.000001 1.608675 9.277492 -74.228413 4.458631 5.683520 -76.209646 4.212056 5.617582 -73.705657 -0.000001 -0.000001 -0.000001 0.581963 1.450484 9.926719 -0.689329 20.980827 50.915447 0.000074 80.052378 -0.000064 13.031108 4.994275 -1.839665 -0.967686 -6.175438 80.124758 3.306844 -4.457522 73.127625 1.089665 -2.995607 39.970656 0.000000 -0.000000 0.000000 -3.653720 -5.053345 76.346646 2.712350 -4.232469 65.292852 2.400249 -4.074823 60.986308 0.000000 -0.000002 -0.000004 -2.354629 -4.918718 72.259727 3.437211 -4.494888 74.797873 2.931762 -4.326412 68.232811 0.000001 0.000000 0.000001 -2.559084 -4.091455 72.845395 3.128488 -4.399660 70.818372 1.773430 -3.658496 51.711212 0.000004 -0.000001 0.000000 5.535801 -3.771049 -3.032817 3.740051 -15.034886 -2.831616 -10.970996 14.122262 -4.262871 -0.000004 0.000000 0.000001 -30.802186 1.658538 -2.111045 57.515739 2.106125 0.454750 -37.415230 -5.462667 1.007048 0.095653 0.000001 0.000000 -0.000000 -0.000000 0.000000 -61.969056 -2.133098 -5.475688 114.160929 3.143529 0.829035 -0.735024 0.758176 -0.971250 -9.876259 -0.000001 0.000000 0.000002 -0.000000 -0.000000 
-1.640909 92.157990 177.197327 10.817723 4.826999 -3.771190 10.183302 -12.108897 3.578419 0.974653 -5.652650 -0.277677 3.885760 -5.662879 -0.415789 -2.421480 2.036714 2.024131 -12.503088 14.239553 1.010327 -0.000000 0.000000 -0.000000 -0.000000 0.000000 -0.000000 -0.000000 0.000000 -0.000000 0.586484 -11.048955 -9.731828 -25.411463 -1.884173 -61.929421 0.006200 -91.917742 0.006259 -3.138694 -4.648715 5.710338 -0.820505 6.623770 -5.864586 6.606035 33.822055 16.404608 1.658582 -31.491400 18.305764 0.000003 0.000000 -0.000001 5.802032 3.288745 -82.024493 4.069205 5.574058 -72.240841 5.478150 5.839191 -86.339383 0.000002 -0.000000 0.000000 3.485662 7.771587 -75.785928 4.704198 5.737942 -78.677072 3.115839 5.174332 -62.088325 -0.000000 -0.000000 0.000001 1.971559 7.364926 -75.181914 6.016765 5.848729 -91.625526 3.941074 5.531560 -70.916638 0.000000 -0.000000 0.000001 0.973412 8.944607 -72.676375 4.464731 5.685003 -76.271206 4.214718 5.618360 -73.732882 0.000000 0.000000 -0.000000 0.590114 0.903044 10.094086 13.849154 18.170368 46.790436 0.000765 93.649632 -0.000697 15.075132 -0.494616 -1.255821 -0.758684 -6.323178 80.954278 3.365276 -4.474761 73.878161 1.129422 -3.042339 40.725402 0.000000 -0.000002 -0.000003 -3.308181 -5.347203 77.982763 2.743194 -4.246490 65.710545 2.430952 -4.091659 61.417327 -0.000000 -0.000003 -0.000002 -2.058917 -5.309178 75.118229 3.460263 -4.501091 75.092049 2.954480 -4.335382 68.533421 -0.000000 -0.000002 0.000001 -2.319322 -4.612068 76.355019 3.126252 -4.398878 70.789132 1.771568 -3.657034 51.681996 0.000002 -0.000001 -0.000002 5.535803 -3.771052 -3.032815 5.354327 -15.493524 -0.170808 -10.980957 14.139321 -4.260800 -0.000002 -0.000001 0.000001 -13.732942 2.905733 0.913251 42.057262 7.667300 3.869576 -40.455996 -10.645387 -5.791702 -1.388668 0.000000 -0.000000 0.000000 0.000000 0.000000 -68.356280 -5.045947 -4.072225 100.162108 7.216149 1.470299 -6.129106 1.017967 -3.683338 -7.469698 0.000000 0.000001 -0.000001 -0.000000 -0.000000 
-1.211065 94.674255 191.890091 10.636046 2.678900 -5.380955 10.395101 -15.552134 6.379102 0.723737 -7.007698 0.001976 3.553204 -7.020919 -0.129818 -2.816674 3.328779 0.952498 -9.961509 20.947429 0.470392 -0.000000 0.000000 0.000000 -0.000000 0.000000 0.000000 -0.000000 0.000000 0.000000 0.683405 -8.927667 -7.749059 -20.748656 -5.524341 -57.310560 0.000218 -102.060655 0.000192 -7.424618 -1.570048 12.187796 -0.820505 6.623770 -5.864584 3.832578 31.207312 16.156848 1.375495 -29.646095 17.766879 -0.000001 -0.000000 0.000000 5.768172 3.262481 -81.767091 4.014295 5.556243 -71.674550 5.420490 5.835245 -85.772553 -0.000001 -0.000000 -0.000000 3.538549 7.778337 -75.386731 4.673796 5.731806 -78.372808 3.089013 5.160095 -61.790508 -0.000003 0.000000 -0.000001 1.509083 7.226995 -74.887171 5.997340 5.849242 -91.434964 3.918859 5.523874 -70.686038 0.000003 -0.000000 0.000000 0.881529 8.858867 -71.313117 4.458687 5.683530 -76.210151 4.209254 5.616768 -73.677053 0.000002 0.000001 -0.000002 0.504145 0.726315 6.601136 24.426502 19.149122 43.438217 -0.000143 102.075511 0.000143 15.931771 -2.706677 -5.464949 -0.131800 -6.535178 79.531658 3.467860 -4.503063 75.188826 1.201192 -3.123668 42.059957 0.000004 0.000002 0.000000 -3.177652 -5.358300 77.851951 2.752436 -4.250637 65.835142 2.440290 -4.096706 61.548146 0.000002 -0.000001 -0.000002 -2.236517 -5.330022 75.735050 3.461936 -4.501516 75.113257 2.955378 -4.335734 68.545545 0.000003 -0.000002 0.000001 -1.764631 -5.031566 76.771354 3.093230 -4.387270 70.358004 1.744205 -3.635280 51.251677 -0.000002 0.000001 0.000000 5.535801 -3.771049 -3.032814 5.408797 -18.771347 2.079379 -10.929106 13.838108 -4.219358 -0.000004 0.000001 -0.000002 -4.589583 6.519039 3.264576 36.489941 6.204666 4.701232 -19.436862 -9.646754 -6.731258 -7.303519 0.031815 1.512474 -0.000000 0.000000 -0.000000 -66.356374 -4.603437 1.145103 76.837634 3.451428 2.038881 -6.484613 0.805199 -0.338762 -7.808645 -0.000002 -0.000001 -0.000000 0.000000 0.000000 
-0.781222 97.190521 206.582855 10.394295 0.536752 -6.995829 10.788431 -18.981003 9.245934 0.478705 -8.363931 0.276524 3.226434 -8.380573 0.149099 -3.188184 4.627977 -0.111856 -7.211133 27.624471 -0.433197 0.000001 -0.000000 -0.000000 0.000001 -0.000000 -0.000000 0.000001 -0.000000 -0.000000 0.705877 -6.804339 -5.780026 -15.769930 -8.764269 -52.373433 -0.000022 -112.525208 -0.000009 -12.028950 0.997646 18.874902 -0.820505 6.623769 -5.864582 1.117989 28.605565 15.771709 1.116987 -27.798592 17.247734 0.000000 0.000000 -0.000000 5.734430 3.236063 -81.509681 3.959566 5.537891 -71.108293 5.362872 5.830735 -85.205722 -0.000002 -0.000000 -0.000001 3.591388 7.785450 -74.987513 4.643421 5.725505 -78.068529 3.062263 5.145719 -61.492692 0.000001 -0.000001 0.000002 1.047471 7.086705 -74.593630 5.977910 5.849689 -91.244415 3.896675 5.516100 -70.455423 0.000001 0.000000 0.000000 0.791759 8.770993 -69.950303 4.452647 5.682052 -76.149103 4.203791 5.615170 -73.621216 0.000002 -0.000000 0.000000 0.407567 0.555153 3.108046 35.090070 19.525600 39.938804 0.000014 107.494610 0.000009 16.625427 -4.975477 -9.651535 0.489870 -6.762568 78.110822 3.571067 -4.529020 76.499574 1.274853 -3.203304 43.394702 -0.000000 0.000001 -0.000000 -3.047139 -5.369695 77.721153 2.761683 -4.254761 65.959752 2.449634 -4.101733 61.678944 0.000001 0.000002 -0.000001 -2.413884 -5.352770 76.351843 3.463602 -4.501946 75.134471 2.956278 -4.336085 68.557669 -0.000000 0.000001 0.000001 -1.206522 -5.447015 77.192032 3.060298 -4.375403 69.926882 1.717000 -3.613315 50.821361 -0.000002 0.000003 0.000003 5.535799 -3.771051 -3.032816 5.603172 -22.044514 4.381312 -10.877098 13.536926 -4.177691 0.000003 0.000002 -0.000004 4.486934 10.457668 5.025716 30.958307 4.669053 5.384564 1.546769 -9.045926 -7.969012 -13.217149 -0.092392 3.020176 0.000001 -0.000000 0.000000 -64.406450 -3.981905 6.340176 53.593274 -0.230557 1.070604 -6.827081 0.572060 3.004275 -8.147586 -0.000004 -0.000003 -0.000000 0.000001 0.000001 
-0.842044 98.596146 220.781281 9.582523 1.222602 -3.426161 9.269317 -23.464618 5.393675 0.424642 -8.757093 0.121709 3.177609 -8.750692 -0.035133 -2.529445 4.938152 0.719381 -4.381867 31.334049 -1.617255 0.000000 -0.000000 0.000000 0.000000 -0.000000 0.000000 0.000000 -0.000000 0.000000 0.678287 -5.369340 -4.499067 -9.439344 -10.902008 -44.064050 0.000048 -118.829965 0.000055 -12.824811 -0.880606 19.940094 -0.820503 6.623768 -5.864583 2.268327 29.096599 15.682210 1.087873 -27.985527 17.165970 -0.000000 0.000001 0.000002 5.931888 3.388918 -82.470177 3.954798 5.536282 -71.059027 5.357880 5.830314 -85.156428 0.000001 0.000001 -0.000000 3.930373 7.883548 -75.840481 4.648137 5.726484 -78.115767 3.067884 5.148768 -61.555420 -0.000001 -0.000000 0.000000 1.149821 7.154939 -75.259867 5.997733 5.849235 -91.438973 3.915909 5.522841 -70.655404 -0.000000 0.000001 -0.000001 1.326610 9.067230 -70.128298 4.476335 5.687814 -76.388317 4.230909 5.623020 -73.898132 -0.000001 0.000000 0.000000 0.303518 0.294173 0.258279 39.436197 19.686859 39.479873 0.000053 109.668625 -0.000043 18.014935 -5.736534 -12.057744 0.644193 -6.746188 74.885566 3.607883 -4.537664 76.965365 1.301705 -3.231421 43.873181 -0.000000 -0.000001 -0.000001 -3.055919 -4.992956 74.687128 2.724202 -4.237890 65.453587 2.413939 -4.082367 61.178694 0.000001 -0.000002 0.000000 -2.342359 -4.940569 72.424812 3.446602 -4.497411 74.917845 2.940846 -4.330036 68.353173 0.000001 -0.000002 -0.000002 -1.521845 -4.941558 73.105632 3.040709 -4.368241 69.669972 1.700873 -3.600144 50.564932 -0.000002 0.000000 0.000003 5.535805 -3.771049 -3.032816 6.022520 -22.088157 4.098005 -10.857887 13.452454 -4.165840 -0.000001 0.000001 -0.000003 7.154341 11.961026 2.208375 39.309409 1.174315 5.008924 3.451684 -0.173010 -7.184136 1.067920 -0.000002 0.000002 -0.000002 0.000000 -0.000000 -56.445752 -1.139501 5.451784 33.055254 -0.313406 0.105625 -10.482471 -0.093624 7.033205 -8.660046 0.000001 -0.000000 -0.000002 -0.000001 0.000000 
